<?xml version="1.0" encoding="UTF-8" standalone="no"?>
<!-- Created with Inkscape (http://www.inkscape.org/) -->

<svg
   xmlns:dc="http://purl.org/dc/elements/1.1/"
   xmlns:cc="http://creativecommons.org/ns#"
   xmlns:rdf="http://www.w3.org/1999/02/22-rdf-syntax-ns#"
   xmlns:svg="http://www.w3.org/2000/svg"
   xmlns="http://www.w3.org/2000/svg"
   xmlns:sodipodi="http://sodipodi.sourceforge.net/DTD/sodipodi-0.dtd"
   xmlns:inkscape="http://www.inkscape.org/namespaces/inkscape"
   id="svg2"
   sodipodi:docname="world-cup-indicator-gs.svg"
   viewBox="0 0 47.999999 48.000001"
   version="1.1"
   inkscape:version="0.92.3 (2405546, 2018-03-11)"
   width="48"
   height="48">
  <sodipodi:namedview
     id="base"
     fit-margin-left="0"
     inkscape:zoom="11.851799"
     borderopacity="1.0"
     inkscape:current-layer="layer1"
     inkscape:cx="26.111135"
     inkscape:cy="23.48448"
     inkscape:window-maximized="1"
     showgrid="false"
     fit-margin-right="0"
     inkscape:snap-nodes="false"
     inkscape:guide-bbox="true"
     inkscape:snap-midpoints="false"
     showguides="true"
     bordercolor="#666666"
     inkscape:window-x="0"
     inkscape:window-y="27"
     fit-margin-bottom="0"
     inkscape:window-width="1920"
     inkscape:pageopacity="0.0"
     inkscape:pageshadow="2"
     pagecolor="#ffffff"
     inkscape:document-units="px"
     inkscape:window-height="1025"
     fit-margin-top="0" />
  <defs
     id="defs4" />
  <g
     id="layer1"
     inkscape:label="Camada 1"
     inkscape:groupmode="layer"
     transform="translate(-1073.4,-1982.13)">
    <circle
       id="path4839"
       style="fill:#dfdbd3;fill-opacity:1;stroke-width:0.0276248"
       cx="1097.4"
       cy="2006.13"
       r="23" />
    <path
       id="path4837"
       style="fill:#3c3c3c;fill-opacity:1;stroke-width:0.02453411"
       inkscape:connector-curvature="0"
       d="m 1097.3994,1983.6259 c -2.4643,0 -4.8356,0.3974 -7.0546,1.1306 -0.3299,0.6265 -0.6816,1.3545 -0.9198,1.9056 -0.05,0.1145 -0.1049,0.242 -0.1225,0.2826 -0.023,0.051 -0.083,0.1002 -0.1893,0.1565 -0.086,0.045 -0.2464,0.1317 -0.3567,0.1903 -0.1104,0.058 -0.2532,0.1396 -0.3174,0.1804 -0.063,0.04 -0.1252,0.075 -0.1354,0.075 -0.012,0 -0.097,0.048 -0.1975,0.1056 -0.096,0.058 -0.2888,0.171 -0.4237,0.2494 -0.2246,0.1309 -0.4589,0.2751 -0.9381,0.5759 -0.2415,0.1512 -1.4008,0.9214 -1.5928,1.0582 -0.086,0.059 -0.2723,0.1969 -0.4168,0.3031 -0.1444,0.1067 -0.3125,0.2269 -0.373,0.2685 -0.061,0.042 -0.166,0.1205 -0.2344,0.175 -0.069,0.055 -0.2107,0.1663 -0.3164,0.2474 -0.106,0.081 -0.32,0.2504 -0.4763,0.3768 -0.1562,0.1263 -0.3495,0.281 -0.4295,0.3439 -0.082,0.062 -0.1648,0.1328 -0.1886,0.1557 -0.048,0.045 -0.1168,0.06 -0.3889,0.082 -0.1002,0.012 -0.2281,0.018 -0.282,0.025 -0.054,0 -0.1752,0.016 -0.2696,0.025 -0.094,0.012 -0.2598,0.026 -0.3676,0.038 -0.108,0.015 -0.2597,0.031 -0.3378,0.038 -0.078,0.012 -0.2542,0.03 -0.3922,0.05 -0.1376,0.019 -0.3056,0.042 -0.3729,0.048 -0.028,0 -0.1036,0.015 -0.1967,0.028 -3.1545,3.787 -5.0935,8.626 -5.2157,13.9154 0.1259,0.1079 0.2431,0.2064 0.314,0.2632 0.06,0.047 0.2154,0.1745 0.3477,0.2824 0.1324,0.1079 0.2642,0.2131 0.2933,0.2333 0.029,0.02 0.1436,0.1089 0.2542,0.1966 0.1113,0.087 0.2694,0.2071 0.3524,0.2654 0.2888,0.2039 0.2747,0.1779 0.3594,0.6678 0.015,0.087 0.043,0.2314 0.061,0.3192 0.018,0.087 0.052,0.2536 0.074,0.3684 0.1267,0.6469 0.1714,0.8526 0.3101,1.4369 0.2664,1.1225 0.6303,2.3773 1.0085,3.475 0.054,0.1554 0.1143,0.3323 0.1341,0.3933 0.038,0.1167 0.1312,0.3704 0.3292,0.8964 0.066,0.1755 0.1379,0.3688 0.1594,0.4294 0.023,0.06 0.056,0.135 0.075,0.1652 0.031,0.049 0.027,0.083 -0.053,0.3315 -0.1404,0.439 -0.1544,0.4856 -0.2232,0.7192 -0.036,0.1216 -0.076,0.2486 -0.089,0.2825 -0.013,0.035 -0.043,0.1388 -0.068,0.2335 -0.026,0.093 -0.077,0.2823 -0.113,0.4174 -0.038,0.135 -0.075,0.2787 -0.086,0.319 -0.012,0.04 -0.043,0.1623 -0.073,0.2704 -0.03,0.1088 -0.06,0.2186 -0.066,0.2457 -0.01,0.026 -0.014,0.055 -0.016,0.071 2.7572,4.5204 7.0582,7.9926 12.1674,9.6811 0.012,0 0.012,-0.012 0.016,-0.012 0.1929,-0.1294 0.3935,-0.2627 0.4456,-0.2965 0.1002,-0.066 0.2754,-0.1871 0.482,-0.3378 0.07,-0.049 0.2184,-0.1575 0.3308,-0.2379 0.113,-0.081 0.331,-0.2403 0.4857,-0.3559 0.1546,-0.1156 0.3144,-0.2311 0.3552,-0.2564 0.043,-0.025 0.082,-0.053 0.086,-0.063 0.014,-0.018 0.2883,-0.2313 0.408,-0.3153 0.085,-0.06 0.062,-0.06 0.9642,0.021 1.366,0.1201 3.0835,0.167 4.5763,0.1252 1.0938,-0.03 1.5965,-0.058 2.6661,-0.1473 l 0.5634,-0.046 0.086,0.058 c 0.1051,0.073 0.2531,0.1809 0.616,0.4541 0.251,0.1892 0.7864,0.5786 1.0616,0.772 0.2756,0.1941 0.6668,0.4536 0.9596,0.6417 5.1043,-1.685 9.4019,-5.1501 12.1607,-9.662 -0.062,-0.2459 -0.1713,-0.6684 -0.1892,-0.7299 -0.012,-0.04 -0.04,-0.1344 -0.061,-0.2089 -0.021,-0.074 -0.073,-0.251 -0.1139,-0.3928 -0.043,-0.142 -0.086,-0.2966 -0.096,-0.344 -0.012,-0.048 -0.046,-0.1634 -0.074,-0.2578 -0.028,-0.094 -0.069,-0.2217 -0.086,-0.2824 -0.028,-0.1002 -0.08,-0.2531 -0.1702,-0.5179 -0.027,-0.083 -0.024,-0.1056 0.066,-0.3196 0.053,-0.127 0.1344,-0.3359 0.1793,-0.4642 0.1141,-0.3254 0.2039,-0.5684 0.232,-0.6263 0.013,-0.028 0.073,-0.1929 0.1326,-0.3682 0.06,-0.1759 0.1264,-0.3692 0.1479,-0.43 0.048,-0.1368 0.2469,-0.7718 0.366,-1.1668 0.05,-0.162 0.1177,-0.3885 0.1532,-0.5032 0.035,-0.1146 0.078,-0.2696 0.094,-0.344 0.016,-0.075 0.076,-0.3005 0.1324,-0.5026 0.057,-0.2021 0.1115,-0.4124 0.1236,-0.4666 0.011,-0.055 0.059,-0.2593 0.1072,-0.455 0.085,-0.3517 0.1479,-0.6357 0.2259,-1.0193 0.022,-0.109 0.055,-0.2685 0.075,-0.3563 0.044,-0.2108 0.1488,-0.791 0.1693,-0.9423 0.017,-0.1338 0.072,-0.1959 0.3063,-0.3541 0.074,-0.049 0.152,-0.1077 0.173,-0.128 0.021,-0.019 0.091,-0.075 0.1548,-0.1228 0.064,-0.047 0.1679,-0.1279 0.2312,-0.1787 0.062,-0.051 0.126,-0.1027 0.1394,-0.1109 0.1026,-0.077 0.4084,-0.3225 0.4803,-0.3839 0.049,-0.04 0.1422,-0.1194 0.2077,-0.1735 0.054,-0.044 0.129,-0.1099 0.1899,-0.1626 -0.1245,-5.2833 -2.0617,-10.1169 -5.2121,-13.901 -0.018,0 -0.039,0 -0.053,-0.012 -0.04,-0.012 -0.1288,-0.018 -0.1962,-0.027 -0.069,-0.012 -0.2258,-0.03 -0.3528,-0.049 -0.1272,-0.018 -0.2398,-0.029 -0.2497,-0.022 -0.012,0.012 -0.026,3e-4 -0.035,-0.015 -0.012,-0.015 -0.026,-0.019 -0.04,-0.012 -0.013,0.012 -0.1025,0 -0.2006,-0.012 -0.2424,-0.036 -0.7506,-0.085 -1.1458,-0.1143 -0.2744,-0.019 -0.2348,0 -0.9383,-0.5633 -0.1675,-0.1352 -0.4118,-0.3286 -0.543,-0.4299 -0.1313,-0.1013 -0.2805,-0.2173 -0.3318,-0.2579 -0.2984,-0.2375 -1.3115,-0.9514 -1.9068,-1.3437 -0.6084,-0.4011 -1.7195,-1.0818 -2.1744,-1.3326 -0.068,-0.038 -0.2384,-0.1319 -0.3798,-0.2103 -0.1415,-0.077 -0.3383,-0.1852 -0.4375,-0.2379 -0.1628,-0.086 -0.1846,-0.1077 -0.2298,-0.2171 -0.059,-0.1378 -0.09,-0.2131 -0.251,-0.5757 -0.1512,-0.3402 -0.4934,-1.0512 -0.7438,-1.5511 -2.2284,-0.7403 -4.6117,-1.1412 -7.0884,-1.1412 z m -8.0838,3.4 0.6049,0.016 c 0.5253,0.015 1.3796,0.055 2.0263,0.099 0.363,0.025 1.3084,0.1211 1.6791,0.1704 0.049,0.012 0.1794,0.022 0.2941,0.038 0.249,0.03 0.4898,0.064 0.7231,0.1003 0.094,0.015 0.2433,0.038 0.3308,0.049 0.087,0.013 0.2199,0.035 0.2939,0.047 0.074,0.013 0.2079,0.036 0.2966,0.048 0.089,0.013 0.2431,0.04 0.3429,0.063 0.099,0.021 0.2756,0.055 0.3901,0.074 0.1141,0.019 0.3406,0.063 0.5023,0.097 0.1618,0.036 0.3491,0.075 0.416,0.087 0.068,0.013 0.1282,0.031 0.1362,0.04 0.019,0.021 -0.018,5.4251 -0.043,6.3527 l -0.018,0.6853 -0.1591,0.098 c -0.087,0.054 -0.3249,0.1996 -0.527,0.324 -0.7975,0.4902 -2.2672,1.4482 -3.0239,1.9709 -0.6639,0.4583 -0.8986,0.6229 -1.4613,1.0247 -1.208,0.8619 -2.5266,1.8531 -3.5217,2.6469 -0.216,0.1721 -0.3995,0.3122 -0.4084,0.3109 -0.012,0 -0.1593,-0.046 -0.3346,-0.1003 -0.1753,-0.053 -0.5061,-0.151 -0.7351,-0.2169 -0.2292,-0.068 -0.5822,-0.1697 -0.7843,-0.2299 -0.6505,-0.193 -1.164,-0.3405 -1.642,-0.4718 -0.2377,-0.065 -0.4815,-0.1334 -0.9068,-0.2541 -0.537,-0.1523 -0.62,-0.1755 -1.0662,-0.2984 -0.2495,-0.07 -0.525,-0.1453 -0.6128,-0.1704 -0.087,-0.025 -0.2696,-0.075 -0.4045,-0.1111 -0.4532,-0.1199 -0.5138,-0.1365 -0.6279,-0.1725 -0.062,-0.019 -0.1306,-0.037 -0.1516,-0.037 -0.02,0 -0.044,-0.012 -0.051,-0.02 -0.013,-0.021 0.027,-0.3738 0.095,-0.8504 0.022,-0.1487 0.05,-0.3364 0.059,-0.4177 0.036,-0.2521 0.1001,-0.6424 0.1563,-0.9207 0.019,-0.1013 0.055,-0.2894 0.079,-0.4176 0.024,-0.1286 0.058,-0.2904 0.074,-0.36 0.018,-0.072 0.034,-0.1517 0.034,-0.1824 0,-0.031 0.012,-0.09 0.024,-0.1315 0.013,-0.04 0.037,-0.1416 0.051,-0.2226 0.042,-0.2206 0.093,-0.4492 0.1362,-0.6139 0.059,-0.2205 0.076,-0.294 0.144,-0.5895 0.035,-0.1486 0.074,-0.3034 0.09,-0.3439 0.014,-0.04 0.035,-0.1121 0.047,-0.1597 0.06,-0.2504 0.08,-0.3234 0.1332,-0.5034 0.032,-0.1089 0.077,-0.2628 0.097,-0.3437 0.021,-0.082 0.056,-0.1838 0.074,-0.2281 0.018,-0.044 0.035,-0.093 0.035,-0.11 0,-0.029 0.2866,-0.9057 0.4029,-1.2339 0.035,-0.095 0.086,-0.1934 0.1204,-0.2211 0.7042,-0.5795 1.7371,-1.3778 2.2829,-1.7637 0.221,-0.1565 1.5271,-1.0335 1.7156,-1.1519 0.067,-0.042 0.1776,-0.1122 0.245,-0.1551 0.096,-0.061 0.8219,-0.4967 1.054,-0.6319 0.2824,-0.1641 0.6635,-0.3752 1.0737,-0.5946 l 0.216,-0.1157 z m 16.1724,0 0.2636,0.139 c 0.2502,0.1322 0.4923,0.2667 0.876,0.4874 0.094,0.053 0.2158,0.1225 0.2695,0.1511 0.3995,0.2123 2.1276,1.3208 2.6348,1.6901 0.087,0.063 0.2035,0.146 0.2575,0.1826 0.3396,0.2301 1.0881,0.7998 1.8043,1.373 0.5792,0.4637 0.5496,0.4271 0.6732,0.8182 0.031,0.1013 0.07,0.2064 0.081,0.2333 0.039,0.087 0.2483,0.7597 0.2482,0.7989 0,0.021 0.012,0.048 0.022,0.061 0.017,0.018 0.1987,0.6411 0.2996,1.0309 0.014,0.054 0.038,0.1314 0.051,0.1717 0.038,0.1101 0.1776,0.6915 0.2137,0.8851 0.012,0.055 0.026,0.111 0.036,0.1259 0.015,0.026 0.07,0.2519 0.1155,0.4875 0.012,0.053 0.033,0.159 0.047,0.2333 0.015,0.074 0.037,0.1848 0.048,0.2456 0.012,0.059 0.043,0.2211 0.07,0.3559 0.028,0.135 0.07,0.3507 0.092,0.4791 0.022,0.1281 0.057,0.3012 0.076,0.3852 0.018,0.084 0.035,0.1862 0.035,0.2272 0,0.04 0.012,0.1212 0.024,0.1787 0.013,0.057 0.042,0.2325 0.062,0.3877 0.023,0.1555 0.049,0.3488 0.061,0.4299 0.024,0.1631 0.064,0.4595 0.085,0.6194 0.012,0.097 0.011,0.1056 -0.054,0.1197 -0.1166,0.027 -0.3057,0.076 -0.5016,0.1311 -0.1036,0.029 -0.2089,0.057 -0.2327,0.061 -0.054,0.012 -0.2813,0.072 -0.4529,0.1196 -0.4713,0.1338 -0.6694,0.1896 -0.853,0.2379 -0.1144,0.03 -0.2747,0.075 -0.3554,0.099 -0.082,0.025 -0.3346,0.094 -0.5638,0.1578 -0.2291,0.062 -0.5049,0.1404 -0.6128,0.1721 -0.108,0.031 -0.5764,0.164 -1.0415,0.2947 -0.4649,0.1305 -0.9447,0.2697 -1.0661,0.3085 -0.1212,0.039 -0.3583,0.1089 -0.5269,0.1552 -0.1683,0.046 -0.4607,0.13 -0.6494,0.1863 -0.1887,0.056 -0.3595,0.1078 -0.3799,0.1133 -0.021,0 -0.1364,-0.07 -0.2575,-0.1666 -2.4371,-1.9598 -5.8079,-4.3347 -8.3505,-5.8822 l -0.5561,-0.3382 v -3.516 l -6e-4,-3.5149 0.1409,-0.026 c 0.077,-0.015 0.2181,-0.043 0.3124,-0.066 0.094,-0.023 0.3149,-0.067 0.4902,-0.1003 0.175,-0.033 0.4068,-0.076 0.5147,-0.095 0.108,-0.02 0.2623,-0.049 0.3429,-0.061 0.082,-0.013 0.2134,-0.035 0.2943,-0.048 0.3206,-0.057 0.6824,-0.1089 1.2621,-0.1826 0.1686,-0.022 0.3781,-0.049 0.4659,-0.064 0.1878,-0.029 1.0794,-0.1169 1.36,-0.1349 0.1072,-0.012 0.2458,-0.017 0.3063,-0.025 0.061,-0.012 0.2098,-0.017 0.3308,-0.024 0.1216,-0.012 0.2924,-0.017 0.3801,-0.025 0.2794,-0.022 0.6831,-0.037 1.256,-0.049 l 0.5578,-0.015 z m -24.6605,12.3812 c 0.012,0 0.1392,0.035 0.2874,0.075 0.1481,0.042 0.3136,0.088 0.3677,0.1013 0.053,0.015 0.1453,0.042 0.2029,0.061 0.057,0.02 0.1394,0.04 0.1814,0.048 0.043,0.012 0.1051,0.025 0.1402,0.038 0.035,0.015 0.1629,0.049 0.2842,0.082 0.1214,0.03 0.276,0.073 0.3433,0.093 0.1013,0.031 0.5577,0.1629 0.9189,0.2638 0.049,0.013 0.2181,0.064 0.38,0.1121 0.1617,0.048 0.3158,0.091 0.3415,0.095 0.026,0 0.1142,0.03 0.1961,0.057 0.083,0.028 0.2092,0.063 0.2834,0.084 0.1779,0.047 1.0075,0.2943 1.2867,0.3846 0.1212,0.039 0.3916,0.1211 0.6004,0.1819 0.2086,0.06 0.5673,0.1679 0.7965,0.2378 0.2292,0.072 0.4717,0.1435 0.5392,0.1635 0.068,0.02 0.131,0.044 0.1407,0.053 0.011,0.012 0.091,0.2978 0.1794,0.6418 0.089,0.3438 0.2051,0.7804 0.2595,0.9694 0.054,0.1892 0.1296,0.4544 0.167,0.5894 0.1114,0.4047 0.3659,1.2799 0.4695,1.6209 0.054,0.1756 0.1306,0.43 0.1716,0.5651 0.042,0.1349 0.1417,0.4556 0.2228,0.712 0.083,0.2566 0.1699,0.5387 0.1975,0.6265 0.2587,0.8177 0.7852,2.3649 1.1322,3.3277 0.2716,0.7536 0.5465,1.501 0.5888,1.5995 0.036,0.083 0.028,0.093 -0.684,1.0775 -0.089,0.1217 -0.2741,0.3812 -0.4134,0.5774 -0.4036,0.5675 -0.6227,0.8737 -0.8607,1.2054 -0.1225,0.1706 -0.2805,0.3916 -0.3509,0.4912 -0.071,0.1003 -0.2388,0.3368 -0.3737,0.526 -0.1348,0.1889 -0.3962,0.5592 -0.5805,0.8228 -0.1845,0.2632 -0.3831,0.545 -0.4419,0.626 -0.2139,0.2943 -0.7048,0.9885 -0.8846,1.2524 -0.2168,0.3179 -0.227,0.3298 -0.275,0.3134 -0.076,-0.027 -0.5207,-0.2038 -0.5957,-0.2378 -0.043,-0.019 -0.1885,-0.083 -0.3233,-0.1384 -0.1347,-0.056 -0.2728,-0.1177 -0.3064,-0.1357 -0.035,-0.018 -0.166,-0.077 -0.2941,-0.1303 -0.1279,-0.054 -0.299,-0.1297 -0.3798,-0.1698 -0.081,-0.04 -0.2189,-0.1026 -0.3063,-0.1396 -0.087,-0.037 -0.2201,-0.098 -0.2942,-0.1361 -0.074,-0.038 -0.223,-0.11 -0.3309,-0.158 -0.1072,-0.048 -0.2235,-0.1037 -0.2573,-0.1249 -0.034,-0.02 -0.1218,-0.065 -0.1961,-0.1003 -0.075,-0.035 -0.19,-0.091 -0.2574,-0.1259 -0.067,-0.036 -0.2659,-0.1385 -0.4412,-0.2287 -0.4126,-0.2125 -0.8719,-0.461 -0.9089,-0.4919 -0.016,-0.013 -0.096,-0.057 -0.1823,-0.097 -0.085,-0.04 -0.2116,-0.1122 -0.2833,-0.1581 -0.073,-0.046 -0.1838,-0.112 -0.2482,-0.1465 -0.205,-0.11 -0.3821,-0.2136 -0.5462,-0.3188 -0.087,-0.055 -0.2143,-0.1332 -0.2817,-0.1717 -0.067,-0.039 -0.2,-0.1208 -0.2944,-0.1827 -0.193,-0.1266 -0.1983,-0.1301 -0.3958,-0.2456 -0.079,-0.046 -0.1872,-0.1182 -0.2413,-0.1605 -0.054,-0.042 -0.1284,-0.095 -0.1662,-0.1203 -0.038,-0.025 -0.078,-0.069 -0.09,-0.095 -0.012,-0.029 -0.061,-0.1474 -0.1104,-0.2626 -0.05,-0.1141 -0.131,-0.3327 -0.1829,-0.4841 -0.052,-0.1514 -0.1002,-0.2876 -0.1104,-0.3024 -0.05,-0.083 -0.5867,-1.679 -0.6876,-2.0493 -0.019,-0.066 -0.061,-0.2052 -0.094,-0.307 -0.035,-0.1013 -0.084,-0.2679 -0.108,-0.3693 -0.027,-0.1013 -0.061,-0.2171 -0.075,-0.2576 -0.043,-0.1287 -0.2725,-1.0086 -0.2725,-1.053 0,-0.025 -0.027,-0.1389 -0.06,-0.2566 -0.122,-0.4364 -0.1607,-0.5909 -0.1607,-0.6429 0,-0.029 -0.016,-0.1218 -0.037,-0.2052 -0.051,-0.2167 -0.1474,-0.6804 -0.1959,-0.9492 -0.012,-0.035 -0.025,-0.1333 -0.042,-0.2212 -0.015,-0.087 -0.043,-0.2294 -0.061,-0.3145 -0.07,-0.3225 -0.076,-0.3021 0.4877,-1.5887 0.3929,-0.8963 1.0914,-2.3276 1.4438,-2.9572 0.095,-0.1706 0.2122,-0.3812 0.2597,-0.4691 0.3788,-0.7019 0.9464,-1.657 1.4146,-2.3823 0.3199,-0.4955 0.383,-0.5893 0.3991,-0.5893 z m 33.138,0.015 c 0,-2e-4 0.012,8e-4 0.012,0 0.015,0.012 0.073,0.081 0.125,0.1643 0.2742,0.432 0.6344,1.0039 0.7139,1.1344 0.3349,0.5495 0.7393,1.2459 0.9481,1.6333 0.1348,0.2497 0.2527,0.4653 0.2629,0.4786 0.062,0.085 0.7807,1.5063 1.0184,2.0141 0.3233,0.691 0.5957,1.3101 0.8622,1.9624 l 0.1093,0.2673 -0.043,0.2486 c -0.035,0.2161 -0.2402,1.273 -0.3075,1.5863 -0.09,0.4154 -0.1328,0.6028 -0.1818,0.7859 -0.03,0.1144 -0.082,0.3138 -0.1102,0.4421 -0.085,0.3568 -0.2885,1.0983 -0.4287,1.5594 -0.1471,0.4834 -0.3832,1.2266 -0.4096,1.2896 -0.014,0.035 -0.074,0.2049 -0.1312,0.3806 -0.059,0.1756 -0.1447,0.4243 -0.1929,0.5526 -0.05,0.1283 -0.1167,0.3133 -0.1509,0.4115 -0.035,0.099 -0.1216,0.3176 -0.1932,0.4887 -0.1489,0.3558 -0.091,0.2996 -0.7221,0.6992 -0.5672,0.3588 -0.5743,0.3633 -0.6151,0.3815 -0.019,0.012 -0.092,0.052 -0.1592,0.094 -0.1777,0.1155 -0.6766,0.4037 -0.6995,0.4037 -0.011,0 -0.023,0.012 -0.025,0.018 -0.011,0.022 -0.1836,0.1199 -0.3885,0.2213 -0.074,0.037 -0.1401,0.074 -0.1469,0.083 -0.014,0.017 -0.5105,0.2871 -0.9803,0.5303 -0.1686,0.087 -0.3341,0.1741 -0.3678,0.1926 -0.086,0.048 -1.3161,0.6354 -1.4092,0.674 -0.027,0.012 -0.1776,0.083 -0.3346,0.1574 -0.1571,0.074 -0.2931,0.1374 -0.3025,0.1374 -0.016,0 -0.078,0.027 -0.3738,0.1632 -0.096,0.045 -0.2412,0.1066 -0.3186,0.1343 -0.077,0.028 -0.2003,0.079 -0.2728,0.1112 -0.073,0.034 -0.2432,0.1036 -0.3795,0.1586 -0.1367,0.054 -0.2595,0.1056 -0.2736,0.111 -0.014,0.011 -0.1742,-0.2022 -0.356,-0.4627 -0.4591,-0.6565 -1.2074,-1.7186 -1.6757,-2.3776 -0.2166,-0.3045 -0.5758,-0.811 -0.7982,-1.125 -0.2225,-0.3145 -0.4701,-0.6622 -0.55,-0.7729 -0.081,-0.1111 -0.2624,-0.367 -0.4058,-0.5696 -0.1435,-0.2025 -0.4346,-0.6106 -0.6466,-0.9063 -0.2117,-0.296 -0.3938,-0.5559 -0.405,-0.5774 -0.014,-0.024 0.024,-0.1591 0.113,-0.395 0.073,-0.1959 0.2087,-0.5664 0.3012,-0.8227 0.092,-0.2568 0.2413,-0.6713 0.3314,-0.9214 0.2251,-0.6235 0.8878,-2.5832 0.988,-2.9225 0.014,-0.048 0.077,-0.2463 0.1395,-0.4419 0.062,-0.1959 0.1337,-0.4225 0.1584,-0.5037 0.025,-0.081 0.069,-0.219 0.094,-0.3067 0.2477,-0.8077 0.5635,-1.8864 0.6907,-2.358 0.024,-0.088 0.093,-0.3309 0.1539,-0.5403 0.061,-0.2093 0.174,-0.6292 0.2511,-0.9333 0.077,-0.3038 0.1488,-0.5691 0.1592,-0.5887 0.01,-0.02 0.085,-0.055 0.1627,-0.079 0.079,-0.025 0.2701,-0.084 0.4249,-0.1335 0.1552,-0.048 0.315,-0.099 0.3554,-0.1089 0.1116,-0.029 1.0537,-0.3112 1.2621,-0.3776 0.1813,-0.058 1.1025,-0.3281 1.5319,-0.4497 0.1213,-0.035 0.2866,-0.083 0.3675,-0.1068 0.083,-0.024 0.2519,-0.074 0.38,-0.111 0.128,-0.037 0.3816,-0.1098 0.5637,-0.1625 0.5654,-0.1645 0.59,-0.1717 0.8188,-0.2295 0.1225,-0.03 0.2514,-0.068 0.2864,-0.082 0.035,-0.014 0.096,-0.031 0.1402,-0.038 0.043,-0.012 0.1246,-0.028 0.1822,-0.048 0.057,-0.02 0.1483,-0.048 0.2022,-0.061 0.054,-0.015 0.2177,-0.058 0.3639,-0.099 0.1274,-0.037 0.2446,-0.061 0.2825,-0.063 z m -10.8733,12.9601 0.1754,0.2379 c 0.095,0.1308 0.307,0.4233 0.4687,0.6493 0.1618,0.2261 0.3661,0.5065 0.4542,0.624 0.087,0.1174 0.2125,0.2914 0.2763,0.386 0.063,0.093 0.2105,0.2991 0.3255,0.4545 0.1153,0.155 0.2498,0.3428 0.2994,0.4166 0.051,0.073 0.1897,0.268 0.311,0.4321 0.1213,0.1641 0.4082,0.5617 0.6373,0.8834 0.2291,0.3216 0.4828,0.6755 0.5638,0.7867 0.08,0.1108 0.2131,0.2932 0.294,0.4054 0.2276,0.3141 0.8321,1.1703 0.9581,1.356 l 0.113,0.1665 -0.096,0.1305 c -0.089,0.1168 -0.644,0.7933 -0.7796,0.9486 -0.028,0.035 -0.1666,0.194 -0.305,0.3562 -0.1382,0.1621 -0.2578,0.3001 -0.2657,0.307 -0.011,0.012 -0.086,0.094 -0.1739,0.1963 -0.087,0.1013 -0.1653,0.1899 -0.1731,0.1967 -0.011,0.012 -0.1165,0.1282 -0.2419,0.2701 -0.994,1.123 -2.6626,2.7646 -3.9798,3.9144 l -0.1676,0.1457 -0.2735,0.018 c -0.1507,0.012 -0.4548,0.031 -0.6755,0.045 -0.2207,0.015 -0.4099,0.031 -0.4212,0.038 -0.011,0.012 -0.3434,0.029 -0.7383,0.049 -0.6754,0.035 -2.8167,0.063 -3.3284,0.046 -0.9798,-0.035 -1.6863,-0.066 -1.8626,-0.087 -0.1144,-0.015 -0.3629,-0.036 -0.5516,-0.048 -0.9768,-0.063 -0.933,-0.057 -1.0533,-0.1558 -0.117,-0.094 -0.3521,-0.3059 -0.6624,-0.5902 -0.1072,-0.1003 -0.2458,-0.2205 -0.3063,-0.2712 -0.2633,-0.2188 -1.509,-1.4396 -2.2057,-2.162 -0.9417,-0.9761 -2.8919,-3.2289 -2.8919,-3.3407 0,-0.013 0.059,-0.1067 0.1325,-0.2073 0.073,-0.1013 0.1962,-0.2782 0.2748,-0.393 0.078,-0.1144 0.2699,-0.3856 0.4244,-0.6017 0.1545,-0.216 0.3222,-0.4536 0.3729,-0.5281 0.051,-0.074 0.1975,-0.2786 0.3263,-0.4543 0.1287,-0.1756 0.3187,-0.4407 0.422,-0.5895 0.1037,-0.1487 0.2992,-0.4229 0.435,-0.6092 0.1359,-0.1866 0.3186,-0.4418 0.4061,-0.5673 0.088,-0.1255 0.2582,-0.3633 0.3797,-0.5288 0.1213,-0.1654 0.2744,-0.3797 0.34,-0.4766 0.065,-0.095 0.1545,-0.2199 0.1977,-0.274 0.043,-0.053 0.1602,-0.2142 0.2594,-0.3561 0.098,-0.1418 0.2318,-0.3244 0.2936,-0.4052 0.061,-0.081 0.2027,-0.2743 0.3131,-0.4298 0.1113,-0.1553 0.2196,-0.3064 0.2437,-0.3354 0.043,-0.052 0.051,-0.052 0.4847,-0.031 1.7475,0.084 2.8007,0.1048 5.2817,0.1067 1.537,2e-4 2.8892,-0.012 3.382,-0.029 1.0656,-0.039 2.0402,-0.077 2.1905,-0.089 l 0.1186,-0.012 z" />
  </g>
  <metadata
     id="metadata178">
    <rdf:RDF>
      <cc:Work>
        <dc:format>image/svg+xml</dc:format>
        <dc:type
           rdf:resource="http://purl.org/dc/dcmitype/StillImage" />
        <cc:license
           rdf:resource="http://creativecommons.org/publicdomain/zero/1.0/" />
        <dc:publisher>
          <cc:Agent
             rdf:about="http://openclipart.org/">
            <dc:title>Openclipart</dc:title>
          </cc:Agent>
        </dc:publisher>
        <dc:title />
        <dc:date>2011-06-27T17:37:08</dc:date>
        <dc:description>Um verto feito para um duvida postada na lista Inkscape Brasil.org</dc:description>
        <dc:source>https://openclipart.org/detail/147445/real-soccer-ball-by-maddrum</dc:source>
        <dc:creator>
          <cc:Agent>
            <dc:title>Maddrum</dc:title>
          </cc:Agent>
        </dc:creator>
        <dc:subject>
          <rdf:Bag>
            <rdf:li>Ball</rdf:li>
            <rdf:li>Bola</rdf:li>
            <rdf:li>Football</rdf:li>
            <rdf:li>Futebol</rdf:li>
            <rdf:li>Soccer</rdf:li>
            <rdf:li>worldcup</rdf:li>
          </rdf:Bag>
        </dc:subject>
      </cc:Work>
      <cc:License
         rdf:about="http://creativecommons.org/publicdomain/zero/1.0/">
        <cc:permits
           rdf:resource="http://creativecommons.org/ns#Reproduction" />
        <cc:permits
           rdf:resource="http://creativecommons.org/ns#Distribution" />
        <cc:permits
           rdf:resource="http://creativecommons.org/ns#DerivativeWorks" />
      </cc:License>
    </rdf:RDF>
  </metadata>
</svg>
