<?xml version="1.0" encoding="UTF-8" standalone="no"?>
<!-- Created with Inkscape (http://www.inkscape.org/) -->

<svg
   xmlns:dc="http://purl.org/dc/elements/1.1/"
   xmlns:cc="http://creativecommons.org/ns#"
   xmlns:rdf="http://www.w3.org/1999/02/22-rdf-syntax-ns#"
   xmlns:svg="http://www.w3.org/2000/svg"
   xmlns="http://www.w3.org/2000/svg"
   xmlns:sodipodi="http://sodipodi.sourceforge.net/DTD/sodipodi-0.dtd"
   xmlns:inkscape="http://www.inkscape.org/namespaces/inkscape"
   version="1.1"
   id="svg4404"
   width="48"
   height="48"
   viewBox="0 0 48 48"
   sodipodi:docname="world-cup-gs.svg"
   inkscape:version="0.92.3 (2405546, 2018-03-11)">
  <metadata
     id="metadata4410">
    <rdf:RDF>
      <cc:Work
         rdf:about="">
        <dc:format>image/svg+xml</dc:format>
        <dc:type
           rdf:resource="http://purl.org/dc/dcmitype/StillImage" />
        <dc:title></dc:title>
      </cc:Work>
    </rdf:RDF>
  </metadata>
  <defs
     id="defs4408" />
  <sodipodi:namedview
     pagecolor="#ffffff"
     bordercolor="#666666"
     borderopacity="1"
     objecttolerance="10"
     gridtolerance="10"
     guidetolerance="10"
     inkscape:pageopacity="0"
     inkscape:pageshadow="2"
     inkscape:window-width="1645"
     inkscape:window-height="873"
     id="namedview4406"
     showgrid="false"
     inkscape:zoom="5.906662"
     inkscape:cx="-0.15166491"
     inkscape:cy="16.676085"
     inkscape:window-x="0"
     inkscape:window-y="27"
     inkscape:window-maximized="0"
     inkscape:current-layer="svg4404" />
  <path
     style="fill:#dfdbd3;stroke-width:0.06116231;fill-opacity:1"
     d="m 24.376801,45.955294 c 4.2e-4,-0.0252 0.19057,-0.1227 0.42257,-0.2166 2.16168,-0.87493 3.04732,-2.80906 2.82088,-6.1605 -0.28359,-4.19722 -1.91369,-7.94946 -5.22619,-12.02988 -0.30594,-0.37686 -0.57001,-0.68602 -0.58683,-0.68703 -0.0168,-0.001 -0.0962,0.1498 -0.17648,0.33514 -0.29569,0.68299 -1.17963,1.32881 -2.2093,1.61414 -0.44783,0.1241 -0.85583,0.1652 -0.85583,0.0862 0,-0.0221 0.0712,-0.13346 0.15824,-0.24756 0.25452,-0.3337 0.61631,-1.17199 0.73043,-1.69248 0.12598,-0.57453 0.0975,-1.85359 -0.0512,-2.30123 -0.0699,-0.21047 -0.093,-0.23925 -0.0981,-0.12232 -0.0101,0.23294 -0.33545,0.75369 -0.62948,1.00749 -0.44411,0.38334 -1.11694,0.67807 -1.80719,0.79162 -0.23081,0.038 -0.23864,0.0194 -0.0843,-0.19945 0.5147,-0.72989 0.67853,-1.58441 0.56484,-2.94603 -0.0991,-1.18728 -0.40324,-2.11755 -1.1909,-3.64301 -0.2158,-0.41793 -0.38053,-0.75988 -0.36609,-0.75988 0.0145,0 0.1375,0.0567 0.27344,0.1261 0.41339,0.21089 1.12865,0.36329 1.69965,0.36214 1.12425,-0.002 1.99998,-0.34559 2.74252,-1.07515 0.24388,-0.23962 0.44244,-0.4189 0.44125,-0.39839 -10e-4,0.0205 -0.0416,0.20243 -0.0898,0.40426 -0.28864,1.20905 -0.0966,2.95949 0.49462,4.50879 0.30069,0.78795 0.82956,1.79198 1.35684,2.57588 0.53422,0.79423 0.62364,0.90851 1.73417,2.2163 1.85821,2.18829 2.78898,3.54539 3.76132,5.4842 1.07113,2.13575 2.17949,5.44794 2.50499,7.48578 0.13157,0.82371 0.149,2.18844 0.0339,2.65269 -0.24738,0.99764 -0.75051,1.56534 -1.87335,2.11374 -0.73406,0.35853 -1.52545,0.58859 -2.38533,0.69343 -0.62369,0.076 -2.11049,0.0913 -2.10934,0.0216 z m 4.91032,-3.00217 c 0.0846,-0.0786 0.25738,-0.17844 0.38398,-0.22196 0.19388,-0.0666 0.21079,-0.0853 0.10722,-0.11816 -0.18052,-0.0573 -0.38643,-0.29925 -0.47574,-0.55902 l -0.0783,-0.22788 -0.11522,0.19732 c -0.116,0.19865 -0.47541,0.42801 -0.67854,0.43303 -0.069,0.002 -0.0281,0.0457 0.11074,0.11909 0.24058,0.12716 0.39281,0.32166 0.4594,0.58698 0.038,0.15162 0.048,0.15755 0.0878,0.0522 0.0247,-0.0654 0.11409,-0.18308 0.19868,-0.26164 z m 0.11604,-2.19663 c 0.13986,-0.16285 0.17405,-0.3069 0.11173,-0.47082 -0.16711,-0.43953 -0.79632,-0.29635 -0.79632,0.1812 0,0.34449 0.46758,0.5423 0.68459,0.28962 z m -0.45355,-1.76188 c 0.14788,-0.10358 0.17931,-0.32624 0.0625,-0.44302 -0.1163,-0.1163 -0.40316,-0.0892 -0.47492,0.0449 -0.0899,0.16807 -0.0797,0.23225 0.059,0.37099 0.14725,0.14725 0.17843,0.14965 0.35337,0.0271 z m -0.44511,-1.6785 c 0,-0.11209 -0.0368,-0.15813 -0.13789,-0.17248 -0.15028,-0.0213 -0.23564,0.10982 -0.17474,0.26852 0.0221,0.0576 0.092,0.0882 0.17474,0.0765 0.10109,-0.0144 0.13789,-0.0604 0.13789,-0.17249 z m -9.52197,-15.73452 c 0.0167,-0.14473 -0.002,-0.16768 -0.13953,-0.16768 -0.18514,0 -0.26387,0.14411 -0.15223,0.27863 0.11559,0.13927 0.26964,0.0807 0.29176,-0.11095 z m 1.06354,-1.00436 0.22661,0.0292 -0.13487,-0.18238 c -0.0985,-0.13318 -0.13487,-0.26841 -0.13487,-0.50122 v -0.31884 l -0.20731,0.14043 c -0.1381,0.0935 -0.29677,0.14043 -0.47526,0.14043 h -0.26793 l 0.12917,0.25321 c 0.0832,0.16307 0.12148,0.33388 0.10757,0.47983 l -0.0216,0.22662 0.27595,-0.14824 c 0.19999,-0.10743 0.33831,-0.1402 0.50256,-0.11904 z m 0.50733,24.93615 c -0.9585,-0.20746 -1.57843,-0.47131 -2.33946,-0.99567 -0.24388,-0.16805 -0.44343,-0.30898 -0.44344,-0.31319 0,-0.004 0.48853,-0.008 1.08563,-0.009 0.92683,-10e-4 1.15823,-0.0213 1.58181,-0.13677 1.41995,-0.3871 2.58277,-1.09193 3.6477,-2.21098 1.35365,-1.42246 2.10779,-3.18054 2.1361,-4.97978 0.005,-0.33065 0.0295,-0.5646 0.054,-0.51988 0.0804,0.14689 0.30417,1.35087 0.39579,2.12986 0.43441,3.69386 -0.70373,6.18886 -3.18232,6.97621 -0.62354,0.19807 -2.15213,0.22897 -2.93579,0.0593 z m 2.72172,-0.91895 c 0.16531,-0.16531 0.15404,-0.40199 -0.0278,-0.58382 -0.18549,-0.18549 -0.37913,-0.19137 -0.56459,-0.0171 -0.28184,0.26478 -0.10018,0.72328 0.28658,0.72328 0.10194,0 0.23785,-0.0544 0.30581,-0.12232 z m 1.37269,-0.93105 c 0.0524,-0.0748 0.0952,-0.18485 0.0952,-0.24465 0,-0.14598 -0.21537,-0.35336 -0.36698,-0.35336 -0.16183,0 -0.36697,0.211 -0.36697,0.37745 0,0.32894 0.45321,0.48544 0.63874,0.22056 z m 0.81753,-1.32078 c -0.0159,-0.13733 -0.0489,-0.16408 -0.20244,-0.16408 -0.14807,0 -0.18756,0.0288 -0.20459,0.14947 -0.0276,0.19552 0.14375,0.32974 0.30844,0.2416 0.0805,-0.0431 0.11158,-0.11458 0.0986,-0.22699 z m 0.34802,-0.92861 c 0,-0.0495 -0.0482,-0.0994 -0.10704,-0.11068 -0.0751,-0.0145 -0.10703,0.0186 -0.10703,0.11068 0,0.0921 0.0319,0.12514 0.10703,0.11068 0.0589,-0.0113 0.10704,-0.0611 0.10704,-0.11068 z m -7.18601,1.76253 c -0.75446,-0.11957 -1.09434,-0.6209 -0.94093,-1.38791 0.0347,-0.17345 0.0595,-0.19114 0.26847,-0.19114 0.68343,0 1.85009,-0.33997 2.81579,-0.82055 2.02194,-1.0062 3.72501,-2.62732 4.62132,-4.39892 l 0.28351,-0.56036 -0.0411,0.57581 c -0.12474,1.74899 -0.84646,3.32122 -2.10971,4.59585 -1.47426,1.48753 -3.52716,2.40438 -4.89738,2.18722 z m -0.73451,-2.57871 c 0,-0.0535 0.16659,-0.79307 0.3702,-1.64358 0.42266,-1.76551 0.6924,-3.07409 0.79784,-3.87054 0.0401,-0.30276 0.092,-0.58724 0.11529,-0.63219 0.0704,-0.13562 0.20633,2.44646 0.16437,3.12225 -0.0674,1.08598 -0.33001,1.79177 -0.96451,2.59252 -0.36876,0.46538 -0.48319,0.56758 -0.48319,0.43154 z m 4.5413,-3.07755 c -0.11862,-0.0479 -0.095,-0.10734 0.16982,-0.42685 0.37346,-0.45064 0.54884,-0.84456 0.54884,-1.23274 0,-0.29256 -0.0233,-0.35374 -0.20247,-0.53297 -0.11231,-0.1123 -0.31836,-0.23368 -0.4627,-0.27254 -0.54725,-0.14736 -0.94299,0.18698 -1.13741,0.96094 -0.14731,0.58641 -0.25937,0.82315 -0.37855,0.79971 -0.27004,-0.0531 -0.57413,-0.84526 -0.72924,-1.89964 -0.0827,-0.56233 -0.0945,-0.96382 -0.0639,-2.18723 0.0206,-0.82416 0.0545,-1.60251 0.0754,-1.72967 l 0.038,-0.23118 -0.32801,0.13027 c -0.24984,0.0992 -0.4066,0.12236 -0.65782,0.0971 -0.1814,-0.0183 -0.3556,-0.059 -0.38711,-0.0905 -0.0334,-0.0334 -0.0394,-0.2624 -0.0143,-0.54987 l 0.043,-0.49258 0.24723,-0.0418 c 0.68811,-0.11626 1.50898,-0.50784 2.20981,-1.05416 l 0.36202,-0.28221 0.26669,0.3027 c 0.91275,1.036 2.69691,3.81436 3.24452,5.05247 l 0.12602,0.28492 -0.1801,0.53596 c -0.0991,0.29478 -0.30732,0.78226 -0.4628,1.0833 -0.58699,1.13653 -1.73704,2.01455 -2.32693,1.77653 z m 0.77427,-3.82062 c 0.15052,-0.16883 0.32418,-0.28155 0.55196,-0.35827 l 0.33233,-0.11194 -0.27738,-0.13039 c -0.36095,-0.16967 -0.57941,-0.40344 -0.71788,-0.76823 l -0.11195,-0.29493 -0.0727,0.22017 c -0.11421,0.34606 -0.46872,0.62933 -1.00753,0.80507 -0.0926,0.0302 -0.0514,0.07 0.20438,0.19748 0.36354,0.18116 0.63878,0.51555 0.7091,0.86149 l 0.0467,0.22965 0.0617,-0.20189 c 0.0339,-0.11103 0.16049,-0.31273 0.28128,-0.44821 z m 4.89486,-3.77595 c -0.45977,-0.18117 -0.62176,-0.30644 -0.98809,-0.76414 -0.19226,-0.24021 -0.57028,-0.68445 -0.84005,-0.9872 l -0.49049,-0.55046 0.41191,-0.0456 c 0.38729,-0.0429 1.53113,0.0283 1.73945,0.10829 0.0636,0.0244 0.10835,0.15607 0.13592,0.39969 0.0286,0.25311 0.0673,0.3633 0.12765,0.3633 0.14017,0 0.19646,0.18563 0.1989,0.65586 0.002,0.32687 0.0286,0.46807 0.10329,0.5428 0.11981,0.11981 0.10237,0.35394 -0.0278,0.37353 -0.0505,0.008 -0.21725,-0.0356 -0.37065,-0.0961 z m -3.1156,-4.5705 c -0.57843,-0.31028 -0.80818,-0.47237 -1.24639,-0.87931 -1.52874,-1.41965 -2.02255,-3.71389 -1.26753,-5.88895 0.77173,-2.22324 3.33451,-4.28161 5.87333,-4.71736 1.92875,-0.33103 3.57278,0.25141 4.17763,1.48003 0.17271,0.35082 0.19949,0.47342 0.22114,1.01256 0.0409,1.01826 -0.18368,1.89566 -0.80042,3.12714 -0.8508,1.69884 -1.91145,3.2949 -3.48465,5.24371 -0.5058,0.62657 -0.61769,0.71961 -0.86533,0.71961 -0.30439,0 -0.34832,-0.12425 -0.30964,-0.87595 0.0303,-0.58851 0.0196,-0.71288 -0.0764,-0.89341 -0.17268,-0.32445 -0.39539,-0.45663 -0.76014,-0.45113 -0.7975,0.012 -1.11437,0.85378 -0.70327,1.86823 0.0919,0.22675 0.14989,0.44005 0.12891,0.47401 -0.0783,0.1267 -0.38256,0.0515 -0.88721,-0.21918 z m 2.263,-5.83531 c 0.13119,-0.13119 0.16127,-0.42458 0.0625,-0.60921 -0.0807,-0.15071 -0.39786,-0.25604 -0.57185,-0.18989 -0.33287,0.12656 -0.43085,0.59482 -0.16885,0.80698 0.1876,0.15191 0.52234,0.14802 0.67824,-0.008 z m 1.89189,-1.14786 0.30738,-0.0295 -0.13633,-0.19112 c -0.0989,-0.13863 -0.13633,-0.2782 -0.13633,-0.50818 0,-0.31317 -0.001,-0.3157 -0.12232,-0.20642 -0.19926,0.18023 -0.37436,0.24825 -0.63905,0.24825 h -0.24954 l 0.16397,0.24777 c 0.11653,0.17609 0.16397,0.32699 0.16397,0.52156 v 0.27378 l 0.17043,-0.16328 c 0.12404,-0.11884 0.25411,-0.17133 0.47782,-0.19282 z m -2.33185,-0.62562 c 0.13357,-2.4e-4 0.13602,-0.007 0.0459,-0.13616 -0.0524,-0.0748 -0.0956,-0.23302 -0.0961,-0.35168 -4.9e-4,-0.11867 -0.0212,-0.18547 -0.0459,-0.14846 -0.0713,0.10682 -0.29842,0.20794 -0.46699,0.20794 h -0.15487 l 0.12706,0.21535 c 0.0699,0.11844 0.11343,0.26747 0.0968,0.33118 -0.0296,0.11333 -0.0262,0.11331 0.1614,-10e-4 0.10543,-0.0643 0.25518,-0.11699 0.33277,-0.11712 z m 1.58175,-1.07531 c 0.0204,-0.0531 -0.008,-0.14153 -0.0631,-0.19659 -0.0927,-0.0927 -0.10752,-0.0927 -0.20022,0 -0.12504,0.12504 -0.0677,0.29308 0.10011,0.29308 0.0694,0 0.14282,-0.0434 0.16319,-0.0965 z m -11.63112,1.11111 c -1.52707,-0.379 -2.72989,-2.20302 -3.03117,-4.59661 -0.0997,-0.7922 -0.0417,-2.27727 0.1169,-2.99296 0.55161,-2.4889497 2.00974,-4.0616197 3.63914,-3.9250197 2.49042,0.20879 4.09674,4.2585297 3.16013,7.9670897 -0.30044,1.18961 -0.82166,2.13812 -1.54864,2.81817 -0.44758,0.41869 -0.89296,0.66166 -1.38141,0.75361 -0.40632,0.0765 -0.56519,0.0725 -0.95495,-0.0243 z m 0.28416,-4.25863 c 0.14036,-0.0378 0.35187,-0.0506 0.47002,-0.0284 l 0.21483,0.0403 -0.18751,-0.21357 c -0.23681,-0.2697 -0.34625,-0.59734 -0.30422,-0.9107 l 0.0328,-0.24425 -0.16328,0.15216 c -0.25683,0.23936 -0.44225,0.30983 -0.8152,0.30983 h -0.34664 l 0.17151,0.21916 c 0.22449,0.28689 0.32974,0.63016 0.27791,0.90644 l -0.0414,0.22058 0.218,-0.19141 c 0.11991,-0.10528 0.33285,-0.22234 0.4732,-0.26013 z m 1.21367,-1.61762 c 0.10162,-0.12245 0.0339,-0.27601 -0.12168,-0.27601 -0.13877,0 -0.21626,0.13218 -0.16137,0.27523 0.0451,0.11742 0.18592,0.11781 0.28305,7.8e-4 z m -1.89539,-0.48474 c 0,-0.11901 -0.16662,-0.23896 -0.27445,-0.19758 -0.11143,0.0428 -0.12388,0.32371 -0.0161,0.36237 0.1067,0.0383 0.29052,-0.066 0.29052,-0.16479 z m 0.71201,-1.23166 c 0.12049,-0.1205 0.1471,-0.1935497 0.11693,-0.3210997 -0.0463,-0.19583 -0.24474,-0.37919 -0.41036,-0.37919 -0.15709,0 -0.41858,0.26746 -0.41858,0.42814 0,0.1650097 0.26312,0.4281297 0.42814,0.4281297 0.0703,0 0.19807,-0.0702 0.28387,-0.15598 z m 4.09028,7.02905 c -0.14415,-0.14415 -0.093,-0.39937 0.10181,-0.50823 0.14968,-0.0836 0.17507,-0.0816 0.29052,0.0228 0.15037,0.13608 0.16399,0.35512 0.0304,0.48871 -0.12385,0.12385 -0.29691,0.12249 -0.42272,-0.003 z m 0.53776,-1.04038 c -0.0506,-0.13185 0.0581,-0.2975 0.19514,-0.2975 0.06,0 0.13701,0.0444 0.17126,0.0987 0.0934,0.14814 0.007,0.29884 -0.17126,0.29884 -0.0887,0 -0.17341,-0.0434 -0.19514,-0.10006 z m 11.94524,-0.54215 c -0.24689,-1.44756 -0.90804,-2.36646 -2.14944,-2.98741 -0.23648,-0.11828 -0.56166,-0.24823 -0.72263,-0.28876 -0.32301,-0.0813 -0.31313,-0.12737 0.0517,-0.24076 0.9201,-0.28599 1.83485,-1.02366 2.24195,-1.80796 0.28799,-0.5548297 0.36328,-0.8003797 0.44887,-1.4641197 l 0.071,-0.55046 0.19832,0.61046 c 0.68926,2.1217197 0.70726,4.4752397 0.0498,6.5149497 l -0.14785,0.45871 z m -0.3956,-3.14934 c 0.1012,-0.1012 0.22317,-0.184 0.27104,-0.184 0.14778,0 0.094,-0.0873 -0.11306,-0.18349 -0.1086,-0.0505 -0.24314,-0.18323 -0.29898,-0.29505 l -0.10153,-0.2033 -0.0828,0.17268 c -0.0455,0.095 -0.18462,0.2386 -0.30912,0.31916 l -0.22634,0.14648 0.19657,0.0982 c 0.11539,0.0577 0.24688,0.19925 0.31839,0.34286 0.10505,0.21099 0.12456,0.22579 0.1418,0.10756 0.011,-0.0754 0.10279,-0.2199 0.20399,-0.32111 z m -10.86639,2.64629 c 0.25455,-0.63301 0.36179,-1.43492 0.35807,-2.67739 -0.004,-1.25904 -0.11215,-2.09219 -0.37399,-2.8750197 l -0.17261,-0.51604 0.40067,0.38463 c 0.76834,0.7375997 1.93411,1.5262797 3.09181,2.0917297 0.72365,0.35345 1.51498,0.63947 1.7692,0.63947 0.25259,0 0.1813,0.1029 -0.10252,0.14798 -0.45721,0.0726 -1.47914,0.44525 -2.16648,0.78997 -0.93813,0.47049 -1.73115,1.01908 -2.33205,1.61326 -0.28367,0.28049 -0.49611,0.46113 -0.4721,0.40141 z m 7.14021,-2.61969 c -0.24018,-0.16823 -0.11978,-0.57758 0.16987,-0.57758 0.28966,0 0.41006,0.40935 0.16988,0.57758 -0.0748,0.0524 -0.15121,0.0952 -0.16988,0.0952 -0.0187,0 -0.0951,-0.0428 -0.16987,-0.0952 z m -0.91881,-0.10051 c -0.18118,-0.18118 0.008,-0.44913 0.22179,-0.31423 0.13906,0.0877 0.1513,0.17705 0.0396,0.28878 -0.11812,0.11812 -0.1642,0.12261 -0.26135,0.0255 z m 0.14067,-1.67733 c -0.99322,-0.15002 -1.87072,-0.4216 -2.69114,-0.8328497 -2.03403,-1.01962 -3.56095,-2.67881 -3.98024,-4.32501 -0.15564,-0.61109 -0.10232,-1.4048 0.12575,-1.87163 0.49965,-1.02273 1.56232,-1.55924 3.08996,-1.56001 2.00241,-0.001 4.10284,0.92441 5.69371,2.50856 1.01088,1.00661 1.57432,1.98881 1.72195,3.0017 0.21016,1.44187 -0.57082,2.5595597 -2.07448,2.9688697 -0.35118,0.0956 -1.5275,0.16445 -1.88551,0.11037 z m -0.0859,-3.3146997 c 0.11593,-0.20385 0.45199,-0.37716 0.73731,-0.38022 l 0.20482,-0.002 -0.16171,-0.13542 c -0.23804,-0.19932 -0.41875,-0.53408 -0.41978,-0.77762 l -9.1e-4,-0.21406 -0.16244,0.20616 c -0.17409,0.22095 -0.47017,0.37488 -0.72109,0.37488 -0.19485,0 -0.19502,0.0426 -7.4e-4,0.19537 0.20251,0.1593 0.33702,0.4276 0.34697,0.69209 0.01,0.25804 0.049,0.26712 0.17757,0.041 z m -1.71843,-0.53093 c 0.079,-0.0841 0.20078,-0.15332 0.2706,-0.15384 0.099,-7.3e-4 0.10782,-0.0131 0.04,-0.056 -0.0478,-0.0303 -0.11665,-0.14425 -0.15291,-0.25327 -0.1374,-0.41317 -0.54158,-0.52913 -0.832,-0.23871 -0.0664,0.0664 -0.1827,0.12169 -0.25839,0.12281 l -0.13761,0.002 0.13761,0.11481 c 0.0757,0.0631 0.13762,0.17032 0.13762,0.23817 0,0.16148 0.27828,0.3769 0.48689,0.3769 0.0965,0 0.22402,-0.0633 0.30822,-0.1529 z m -0.83207,-1.63025 c 0.17473,-0.24947 -0.10905,-0.52691 -0.33229,-0.32488 -0.14511,0.13132 -0.15183,0.23265 -0.0239,0.36054 0.13195,0.13195 0.24689,0.12044 0.35623,-0.0357 z m -4.56779,3.21309 c -0.0826,-0.0826 -0.0433,-0.26368 0.0703,-0.32449 0.14888,-0.0797 0.33593,0.0513 0.3051,0.21359 -0.0227,0.11942 -0.28838,0.19791 -0.37539,0.1109 z m -0.50515,-0.78502 c -0.20453,-0.20452 -0.0923,-0.52259 0.18434,-0.52259 0.21341,0 0.37288,0.21426 0.30367,0.40801 -0.0876,0.2452 -0.30609,0.2965 -0.48801,0.11458 z m -0.58769,-1.33949 c -0.44374,-0.40361 -0.90538,-0.6802 -1.4685,-0.87984 -0.38213,-0.13548 -0.55286,-0.15929 -1.15198,-0.16066 -0.69308,-0.002 -0.99611,0.0634 -1.67921,0.36026 -0.20016,0.087 0.3133,-0.48546 0.91468,-1.01974 1.13651,-1.00971 2.59896,-1.84067 4.00613,-2.27627 0.67977,-0.21043 1.71758,-0.43678 1.61153,-0.35148 -0.0285,0.023 -0.21218,0.14877 -0.4081,0.27958 -0.6725,0.44904 -1.23097,1.23159 -1.48596,2.08217 -0.13156,0.43887 -0.14922,1.56887 -0.0309,1.97866 0.0423,0.14636 0.0681,0.27417 0.0575,0.28401 -0.0106,0.01 -0.17496,-0.12367 -0.3652,-0.29669 z m -0.46913,-1.38293 c -0.0164,-0.17205 0.0151,-0.30451 0.10832,-0.45534 l 0.13146,-0.21271 -0.20168,0.0308 c -0.13163,0.0201 -0.28134,-0.0106 -0.43104,-0.0885 l -0.22936,-0.11932 v 0.24391 c 0,0.14114 -0.0487,0.31231 -0.1156,0.40625 l -0.1156,0.16235 h 0.26402 c 0.17859,0 0.3199,0.0434 0.43671,0.13422 0.095,0.0738 0.17341,0.13574 0.17429,0.13761 8.9e-4,0.002 -0.009,-0.10579 -0.0215,-0.23924 z"
     id="path4957"
     inkscape:connector-curvature="0"
     sodipodi:nodetypes="ccsscssscsscssssssccccsssssssssccccscccccccccscsscssscccssscsccssccsccccscscssssccssssccssssssscscccscscsssssscsssssscssscssscscssccccssccccsscsccssccccsssccsscsccsccsccccssssssssssscscsscssscccscscssccccsccsccccccsccsssssssssscccsccssccscsccscccsscsccsssccccscccscscsscssscsscscsccccscccccssscssssssssssssscsscsssssscccccccccsccccccccsccsssccsccsccccsscszsccsscsssczccccscaccascc" />
</svg>
